<svg width="22" height="21" viewBox="0 0 22 21" fill="none" xmlns="http://www.w3.org/2000/svg">
<path fill-rule="evenodd" clip-rule="evenodd" d="M8.59675 0.824588C9.28388 0.290154 10.1295 0 11 0C11.8705 0 12.7162 0.290154 13.4033 0.824588L21.614 7.21065C22.0499 7.54972 22.1285 8.17799 21.7894 8.61394C21.4503 9.04989 20.8221 9.12842 20.3861 8.78935L20 8.48908V18C20 19.6569 18.6569 21 17 21H5.00005C3.34319 21 2.00005 19.6569 2.00005 18V8.48908L1.61399 8.78935C1.17804 9.12842 0.549764 9.04989 0.210694 8.61394C-0.128376 8.17799 -0.0498418 7.54972 0.386105 7.21065L8.59675 0.824588ZM3.99798 6.93514C3.99935 6.95658 4.00005 6.97821 4.00005 7V18C4.00005 18.5523 4.44776 19 5.00005 19H7.00005V14C7.00005 11.7909 8.79091 10 11 10C13.2092 10 15 11.7909 15 14V19H17C17.5523 19 18 18.5523 18 18V7C18 6.97821 18.0007 6.95658 18.0021 6.93514L12.1755 2.40329C11.8394 2.14191 11.4258 2 11 2C10.5743 2 10.1607 2.14191 9.82463 2.40329L3.99798 6.93514ZM13 19V14C13 12.8954 12.1046 12 11 12C9.89548 12 9.00005 12.8954 9.00005 14V19H13Z" fill="#595959"/>
</svg>
