<svg width="23" height="21" viewBox="0 0 23 21" fill="none" xmlns="http://www.w3.org/2000/svg">
<g clip-path="url(#clip0_1434_427)">
<path d="M22.7201 7.81203C22.9029 7.05603 21.4858 5.96403 20.9372 7.72803C20.5258 8.94603 21.0744 9.53403 20.8915 9.66003C20.7087 9.78603 13.9887 17.262 12.8915 18.438C11.2915 17.976 4.89153 16.296 2.92582 15.708C0.914392 14.616 1.64582 11.76 3.06296 12.138C4.02296 12.39 10.2401 14.07 11.3372 14.364C12.3887 14.658 12.8001 14.868 13.5772 13.986C14.6744 12.768 21.5772 5.50203 22.4001 4.70403C22.9944 4.07403 23.2229 3.19203 21.9429 2.98203C20.6172 2.73003 13.0744 1.09203 11.9772 0.924026C10.9258 0.756026 10.6515 0.504026 9.6001 1.68003C9.05153 2.31003 2.10296 9.45003 1.18868 10.332C0.182964 11.298 -1.27989 15.876 2.28582 17.136C5.85153 18.27 10.2401 19.404 12.2515 19.95C13.1658 20.202 13.7601 20.328 14.3087 19.488C14.8572 18.648 21.9887 11.046 22.5372 10.374C23.0401 9.74403 22.7658 10.29 22.6287 9.15603C22.4915 8.02203 22.5829 8.40003 22.7201 7.81203ZM9.2801 4.95603C9.69153 4.49403 9.73724 4.41003 9.87438 4.28403C10.2858 3.90603 10.7887 3.99003 11.2458 4.07403C11.5658 4.11603 16.6401 5.29203 16.9601 5.33403C17.2801 5.41803 18.2401 5.54403 17.7372 6.09003C17.1887 6.67803 17.2344 6.63603 17.0515 6.80403C16.8687 6.97203 16.4572 7.09803 15.7715 6.93003C15.1772 6.76203 10.2858 5.71203 9.87438 5.67003C9.46296 5.62803 8.86867 5.41803 9.2801 4.95603Z" fill="#808080" fill-opacity="0.6"/>
</g>
<defs>
<clipPath id="clip0_1434_427">
<rect width="22.88" height="21" fill="white"/>
</clipPath>
</defs>
</svg>
